<svg width="442.71" height="333" viewBox="0 0 442.71 333" fill="none" xmlns="http://www.w3.org/2000/svg" xmlns:xlink="http://www.w3.org/1999/xlink">
<style>.Star_1_161 {
	animation: 2s linear 0s 1 normal forwards running Star_1_161;
		transform: translateX(6.489999999999995px) translateY(6.49px) rotate(0deg);
}
@keyframes Star_1_161 {
	0% {
		transform: translateX(6.489999999999995px) translateY(6.49px) rotate(0deg);
	}
	100% {
		transform: translateX(6.489999999999995px) translateY(6.49px) rotate(-30deg);
	}
}.Star_2_263 {
	animation: 2s linear 0s 1 normal forwards running Star_2_263;
		transform: translateX(6.3px) translateY(185px) rotate(-8.97deg);
}
@keyframes Star_2_263 {
	0% {
		transform: translateX(6.3px) translateY(185px) rotate(-8.97deg);
	}
	35% {
		transform: translateX(6.3px) translateY(185px) rotate(12deg);
	}
	100% {
		transform: translateX(6.3px) translateY(185px) rotate(-8.97deg);
	}
}.Star_3_883 {
	animation: 2s linear 0s 1 normal forwards running Star_3_883;
		transform: translateX(323.3px) translateY(27px) rotate(-8.97deg);
}
@keyframes Star_3_883 {
	0% {
		transform: translateX(323.3px) translateY(27px) rotate(-8.97deg);
	}
	60% {
		transform: translateX(323.3px) translateY(27px) rotate(0deg);
	}
	100% {
		transform: translateX(323.3px) translateY(27px) rotate(-8.97deg);
	}
}.Star_4_398 {
	animation: 2s linear 0s 1 normal forwards running Star_4_398;
		transform: translateX(332.3px) translateY(198px) rotate(16.23deg);
}
@keyframes Star_4_398 {
	0% {
		transform: translateX(332.3px) translateY(198px) rotate(16.23deg);
	}
	45% {
		transform: translateX(332.3px) translateY(198px) rotate(24deg);
	}
	92.6% {
		transform: translateX(332.3px) translateY(198px) rotate(16.23deg);
	}
	100% {
		transform: translateX(332.3px) translateY(198px) rotate(16.23deg);
	}
}.Star_5_358 {
	animation: 2s linear 0s 1 normal forwards running Star_5_358;
		transform: translateX(71.19px) translateY(75.91px) rotate(16.23deg);
}
@keyframes Star_5_358 {
	0% {
		transform: translateX(71.19px) translateY(75.91px) rotate(16.23deg);
	}
	45% {
		transform: translateX(71.19px) translateY(75.91px) rotate(24deg);
	}
	92.6% {
		transform: translateX(71.19px) translateY(75.91px) rotate(16.23deg);
	}
	100% {
		transform: translateX(71.19px) translateY(75.91px) rotate(16.23deg);
	}
}.Star_6_849 {
	animation: 2s linear 0s 1 normal forwards running Star_6_849;
		transform: translateX(71.91px) translateY(234.62px) rotate(16.23deg);
}
@keyframes Star_6_849 {
	0% {
		transform: translateX(71.91px) translateY(234.62px) rotate(16.23deg);
	}
	45% {
		transform: translateX(71.91px) translateY(234.62px) rotate(24deg);
	}
	92.6% {
		transform: translateX(71.91px) translateY(234.62px) rotate(16.23deg);
	}
	100% {
		transform: translateX(71.91px) translateY(234.62px) rotate(16.23deg);
	}
}.Star_7_399 {
	animation: 2s linear 0s 1 normal forwards running Star_7_399;
		transform: translateX(380.91px) translateY(60.62px) rotate(16.23deg);
}
@keyframes Star_7_399 {
	0% {
		transform: translateX(380.91px) translateY(60.62px) rotate(16.23deg);
	}
	45% {
		transform: translateX(380.91px) translateY(60.62px) rotate(24deg);
	}
	92.6% {
		transform: translateX(380.91px) translateY(60.62px) rotate(16.23deg);
	}
	100% {
		transform: translateX(380.91px) translateY(60.62px) rotate(16.23deg);
	}
}
</style>

<g width="442.71" height="333" data-name="Frame 21">
	<g transform="translate(46.81 -6.49)" width="345.98" height="345.98" data-name="Group 4">
		<ellipse fill="#080D11" data-name="Ellipse 6" transform="translate(173.49 173.49)" rx="160" ry="160"/>
		<path d="M166.5 0.247741L174.865 7.1268L183.904 1.15985L191.504 8.87564L201.117 3.88617L207.87 12.3542L217.951 8.39683L223.782 17.5242L234.222 14.6424L239.066 24.3293L249.75 22.5545L253.555 32.6946L264.366 32.0464L267.091 42.5287L277.91 43.0141L279.524 53.7238L290.234 55.3375L290.719 66.1572L301.201 68.8815L300.553 79.6926L310.693 83.4977L308.918 94.1819L318.605 99.0261L315.724 109.466L324.851 115.296L320.894 125.378L329.362 132.13L324.372 141.743L332.088 149.344L326.121 158.382L333 166.748L326.121 175.113L332.088 184.152L324.372 191.752L329.362 201.365L320.894 208.117L324.851 218.199L315.724 224.029L318.605 234.469L308.918 239.314L310.693 249.998L300.553 253.803L301.201 264.614L290.719 267.338L290.234 278.158L279.524 279.772L277.91 290.481L267.091 290.967L264.366 301.449L253.555 300.801L249.75 310.941L239.066 309.166L234.222 318.853L223.782 315.971L217.951 325.099L207.87 321.141L201.117 329.609L191.504 324.62L183.904 332.336L174.865 326.369L166.5 333.248L158.135 326.369L149.096 332.336L141.496 324.62L131.883 329.609L125.13 321.141L115.049 325.099L109.218 315.971L98.7784 318.853L93.9342 309.166L83.25 310.941L79.4449 300.801L68.6338 301.449L65.9094 290.967L55.0898 290.481L53.4761 279.772L42.7664 278.158L42.281 267.338L31.7987 264.614L32.4469 253.803L22.3068 249.998L24.0815 239.314L14.3947 234.469L17.2765 224.029L8.14909 218.199L12.1064 208.117L3.63843 201.365L8.6279 191.752L0.912109 184.152L6.87906 175.113L0 166.748L6.87906 158.382L0.912109 149.344L8.6279 141.743L3.63843 132.13L12.1064 125.378L8.14909 115.296L17.2765 109.466L14.3947 99.0261L24.0815 94.1819L22.3068 83.4977L32.4469 79.6926L31.7987 68.8815L42.281 66.1572L42.7664 55.3375L53.4761 53.7238L55.0898 43.0141L65.9094 42.5287L68.6338 32.0464L79.4449 32.6946L83.25 22.5545L93.9342 24.3293L98.7784 14.6424L109.218 17.5242L115.049 8.39683L125.13 12.3542L131.883 3.88617L141.496 8.87564L149.096 1.15985L158.135 7.1268L166.5 0.247741Z" fill="#080D11" data-name="Star 1" class="Star_1_161"/>
		<g transform="translate(93.73 72.46)" width="158.56" height="202.02" data-name="Group">
			<path fill-rule="evenodd" clip-rule="evenodd" d="M27.1437 138.989C10.5135 124.453 0 103.085 0 79.2818C0 35.5251 35.5251 0 79.2817 0C123.038 0 158.562 35.5251 158.562 79.2818C158.562 103.597 149.118 122.71 131.862 137.257C129.975 139.659 129.989 144.498 133.022 146.589C140.821 153.306 148.24 151.544 148.299 167.607C148.338 178.129 134.132 184.632 123.611 184.632C116.876 184.632 106.811 179.387 105.661 177.143C105.661 192.251 92.8187 202.018 77.7123 202.018C62.605 202.018 50.6382 192.439 50.6382 177.333C50.6382 176.508 50.5976 176.573 50.7465 174.885C48.0981 182.233 35.4342 187.155 26.4794 185.173C16.2067 182.897 10.5579 178.176 10.5579 167.655C10.5579 158.639 20.4825 153.819 24.3 149.832C28.0758 145.889 29.2536 141.009 27.1437 138.989ZM53.5245 96.9718C54.1675 100.859 57.1302 104.789 61.4418 108.012C65.9525 111.386 72.2598 113.382 78.4617 113.704C84.5843 113.283 90.6218 111.274 94.9972 108.113C99.4035 104.929 102.391 101.121 103.143 97.7231C104.094 94.8842 102.561 91.8065 99.7207 90.855C96.8818 89.9036 93.804 91.4371 92.8526 94.277C92.6824 94.6435 92.1825 94.7895 91.8083 95.1376C90.5986 96.2611 88.747 96.997 86.7541 97.7812C84.2314 98.7752 81.2938 99.3079 78.3553 99.1629C75.4333 99.3399 72.4425 98.8196 69.8782 97.7792C68.2325 97.1111 66.6564 96.5116 65.5309 95.5263C64.9421 95.0119 64.2294 94.6995 63.9877 94.0933C63.1929 91.206 60.2041 89.5071 57.3168 90.301C54.4296 91.0958 52.7307 94.0846 53.5245 96.9718ZM52.3623 61.2891C52.3623 56.3094 48.3186 52.2657 43.3389 52.2657C38.3582 52.2657 34.3155 56.3094 34.3155 61.2891V70.0476C34.3155 75.0283 38.3582 79.071 43.3389 79.071C48.3186 79.071 52.3623 75.0283 52.3623 70.0476V61.2891ZM123.021 61.2891C123.021 56.3094 118.978 52.2657 113.997 52.2657C109.018 52.2657 104.974 56.3094 104.974 61.2891V70.0476C104.974 75.0283 109.018 79.071 113.997 79.071C118.978 79.071 123.021 75.0283 123.021 70.0476V61.2891Z" fill="#01F48B" data-name="Vector"/>
		</g>
	</g>
	<path d="M24.2963 5.31807C26.5514 -0.776252 35.1711 -0.77625 37.4262 5.31808L41.4932 16.3089C42.2022 18.2249 43.7129 19.7356 45.6289 20.4446L56.6197 24.5116C62.714 26.7667 62.714 35.3864 56.6197 37.6415L45.6289 41.7085C43.7129 42.4175 42.2022 43.9281 41.4932 45.8442L37.4262 56.835C35.1711 62.9293 26.5514 62.9293 24.2963 56.835L20.2293 45.8442C19.5203 43.9281 18.0097 42.4175 16.0936 41.7085L5.1028 37.6415C-0.991531 35.3864 -0.991528 26.7667 5.1028 24.5116L16.0936 20.4446C18.0097 19.7356 19.5203 18.2249 20.2293 16.3089L24.2963 5.31807Z" fill="#01F48B" data-name="Star 2" class="Star_2_263"/>
	<path d="M21.9733 4.24112C23.9951 -1.22276 31.7231 -1.22276 33.745 4.24112L37.3912 14.095C38.0269 15.8128 39.3813 17.1672 41.0991 17.8028L50.9529 21.4491C56.4168 23.4709 56.4168 31.1989 50.9529 33.2207L41.0991 36.867C39.3813 37.5026 38.0269 38.857 37.3912 40.5749L33.745 50.4287C31.7231 55.8926 23.9951 55.8926 21.9733 50.4287L18.3271 40.5749C17.6914 38.857 16.337 37.5026 14.6192 36.867L4.76534 33.2207C-0.69854 31.1989 -0.698539 23.4709 4.76534 21.4491L14.6192 17.8028C16.337 17.1672 17.6914 15.8128 18.3271 14.095L21.9733 4.24112Z" fill="#01F48B" data-name="Star 3" class="Star_3_883"/>
	<path d="M19.5351 3.70233C21.3495 -1.20115 28.2849 -1.20114 30.0994 3.70234L33.3717 12.5455C33.9421 14.0872 35.1576 15.3027 36.6992 15.8731L45.5424 19.1454C50.4459 20.9598 50.4459 27.8952 45.5424 29.7097L36.6992 32.982C35.1576 33.5524 33.9421 34.7679 33.3717 36.3095L30.0994 45.1527C28.2849 50.0562 21.3495 50.0562 19.5351 45.1527L16.2628 36.3095C15.6923 34.7679 14.4769 33.5524 12.9352 32.982L4.09203 29.7097C-0.811456 27.8952 -0.811447 20.9598 4.09203 19.1454L12.9352 15.8731C14.4769 15.3027 15.6923 14.0872 16.2628 12.5455L19.5351 3.70233Z" fill="#01F48B" data-name="Star 4" class="Star_4_398"/>
	<path d="M15.706 3.40036C17.1366 -0.465777 22.6048 -0.465781 24.0354 3.40035L26.6154 10.3727C27.0652 11.5882 28.0236 12.5466 29.2391 12.9964L36.2114 15.5764C40.0776 17.007 40.0776 22.4752 36.2114 23.9058L29.2391 26.4858C28.0236 26.9356 27.0652 27.8939 26.6154 29.1094L24.0354 36.0818C22.6048 39.9479 17.1366 39.9479 15.706 36.0818L13.126 29.1094C12.6762 27.8939 11.7179 26.9356 10.5024 26.4858L3.53001 23.9058C-0.336123 22.4752 -0.336129 17.007 3.53 15.5764L10.5024 12.9964C11.7179 12.5466 12.6762 11.5882 13.126 10.3727L15.706 3.40036Z" fill="#01F48B" data-name="Star 5" class="Star_5_358"/>
	<path d="M15.426 3.11036C16.8566 -0.755771 22.3248 -0.755774 23.7554 3.11036L26.3354 10.0827C26.7852 11.2982 27.7436 12.2566 28.9591 12.7064L35.9314 15.2864C39.7976 16.717 39.7976 22.1852 35.9314 23.6158L28.9591 26.1958C27.7436 26.6456 26.7852 27.6039 26.3354 28.8194L23.7554 35.7918C22.3248 39.6579 16.8566 39.6579 15.426 35.7918L12.846 28.8194C12.3962 27.6039 11.4379 26.6456 10.2224 26.1958L3.25001 23.6158C-0.616122 22.1852 -0.616128 16.717 3.25001 15.2864L10.2224 12.7064C11.4379 12.2566 12.3962 11.2982 12.846 10.0827L15.426 3.11036Z" fill="#01F48B" data-name="Star 6" class="Star_6_849"/>
	<path d="M15.426 3.11036C16.8566 -0.755774 22.3248 -0.755778 23.7554 3.11036L26.3354 10.0827C26.7852 11.2982 27.7436 12.2566 28.9591 12.7064L35.9314 15.2864C39.7976 16.717 39.7976 22.1852 35.9314 23.6158L28.9591 26.1958C27.7436 26.6456 26.7852 27.6039 26.3354 28.8194L23.7554 35.7918C22.3248 39.6579 16.8566 39.6579 15.426 35.7918L12.846 28.8194C12.3962 27.6039 11.4379 26.6456 10.2224 26.1958L3.25001 23.6158C-0.616122 22.1852 -0.616128 16.717 3.25001 15.2864L10.2224 12.7064C11.4379 12.2566 12.3962 11.2982 12.846 10.0827L15.426 3.11036Z" fill="#01F48B" data-name="Star 7" class="Star_7_399"/>
</g>
</svg>